<svg xmlns="http://www.w3.org/2000/svg" viewBox="1 3 175 175" fill="none">
<path d="M110.47 92.69L107.65 97.29C107.43 97.6305 107.127 97.9105 106.771 98.1043C106.415 98.2981 106.016 98.3997 105.61 98.3997C105.204 98.3997 104.805 98.2981 104.449 98.1043C104.093 97.9105 103.79 97.6305 103.57 97.29L100.76 92.69L95.42 101.42C95.2215 101.763 95.1186 102.153 95.1218 102.55C95.1251 102.946 95.2345 103.335 95.4386 103.674C95.6428 104.014 95.9342 104.293 96.2826 104.482C96.631 104.672 97.0238 104.764 97.42 104.75H113.74C114.136 104.764 114.529 104.672 114.877 104.482C115.226 104.293 115.517 104.014 115.721 103.674C115.925 103.335 116.035 102.946 116.038 102.55C116.041 102.153 115.938 101.763 115.74 101.42L110.47 92.69Z" fill="#233D79"/>
<path d="M107.65 88.09L110.47 92.69L115.81 84C116.008 83.6568 116.111 83.2667 116.108 82.8702C116.105 82.4738 115.995 82.0855 115.791 81.7456C115.587 81.4057 115.296 81.1267 114.947 80.9376C114.599 80.7484 114.206 80.656 113.81 80.67H97.45C97.0538 80.656 96.6611 80.7484 96.3126 80.9376C95.9642 81.1267 95.6728 81.4057 95.4687 81.7456C95.2645 82.0855 95.1552 82.4738 95.1519 82.8702C95.1486 83.2667 95.2515 83.6568 95.45 84L100.79 92.74L103.6 88.14C103.82 87.7995 104.123 87.5195 104.479 87.3257C104.835 87.1319 105.234 87.0303 105.64 87.0303C106.046 87.0303 106.445 87.1319 106.801 87.3257C107.157 87.5195 107.46 87.7995 107.68 88.14" fill="#233D79"/>
<path d="M85.43 81.78L50.84 59.26V135.32L74.44 150.32C78.0689 152.683 82.2812 153.995 86.61 154.11L86.74 115.03H50.84V109.27H86.76L86.86 82.19C86.3545 82.1889 85.8593 82.0469 85.43 81.78ZM66.81 118.78C67.9022 118.78 68.9698 119.104 69.8778 119.711C70.7858 120.318 71.4933 121.181 71.9108 122.19C72.3283 123.199 72.437 124.31 72.2232 125.381C72.0094 126.452 71.4827 127.435 70.7097 128.207C69.9367 128.978 68.9522 129.503 67.8807 129.715C66.8093 129.927 65.6991 129.816 64.6906 129.397C63.6822 128.978 62.8208 128.269 62.2154 127.359C61.6101 126.45 61.288 125.382 61.29 124.29C61.2887 123.565 61.4306 122.846 61.7075 122.176C61.9844 121.506 62.391 120.897 62.9038 120.384C63.4167 119.871 64.0257 119.464 64.696 119.188C65.3663 118.911 66.0847 118.769 66.81 118.77V118.78ZM64.45 134.1C67.6769 134.097 70.7708 132.814 73.0526 130.533C75.3343 128.251 76.6174 125.157 76.62 121.93C76.6654 121.124 77.0176 120.366 77.6043 119.811C78.191 119.257 78.9677 118.948 79.775 118.948C80.5823 118.948 81.359 119.257 81.9457 119.811C82.5324 120.366 82.8846 121.124 82.93 121.93C82.9273 126.831 80.9798 131.531 77.515 134.998C74.0502 138.465 69.3513 140.415 64.45 140.42C63.6119 140.42 62.8082 140.087 62.2155 139.494C61.6229 138.902 61.29 138.098 61.29 137.26C61.29 136.422 61.6229 135.618 62.2155 135.026C62.8082 134.433 63.6119 134.1 64.45 134.1ZM79.63 90.64L73.69 91.64C72.8022 91.765 71.9716 92.1512 71.3038 92.7495C70.6361 93.3478 70.1613 94.1312 69.94 95L68.78 104.59C68.7526 104.865 68.6237 105.12 68.4184 105.305C68.2131 105.49 67.9463 105.591 67.67 105.59C67.3943 105.589 67.1287 105.487 66.9239 105.302C66.7191 105.118 66.5895 104.864 66.56 104.59L65.38 94.9C65.104 94.1024 64.6266 93.3896 63.9941 92.8307C63.3616 92.2718 62.5955 91.8858 61.77 91.71L55.71 90.64C55.4542 90.591 55.2234 90.4544 55.0575 90.2536C54.8915 90.0528 54.8007 89.8005 54.8007 89.54C54.8007 89.2795 54.8915 89.0272 55.0575 88.8264C55.2234 88.6257 55.4542 88.489 55.71 88.44L61.71 87.38C62.5682 87.2021 63.3645 86.8017 64.0191 86.219C64.6738 85.6363 65.1638 84.8918 65.44 84.06L66.61 78.65C66.6638 78.3996 66.8019 78.1751 67.0011 78.0141C67.2004 77.8531 67.4488 77.7653 67.705 77.7653C67.9612 77.7653 68.2096 77.8531 68.4089 78.0141C68.6081 78.1751 68.7462 78.3996 68.8 78.65L69.92 84C70.2023 84.8449 70.7006 85.6012 71.3654 86.1941C72.0302 86.787 72.8385 87.1958 73.71 87.38L79.63 88.38C79.8858 88.429 80.1166 88.5657 80.2825 88.7664C80.4485 88.9672 80.5393 89.2195 80.5393 89.48C80.5393 89.7405 80.4485 89.9928 80.2825 90.1936C80.1166 90.3944 79.8858 90.531 79.63 90.58V90.64Z" fill="#DAA302"/>
<path d="M157.74 19.91L135.42 34.58V12.26C135.419 11.7763 135.287 11.3019 135.037 10.8876C134.787 10.4733 134.43 10.1346 134.003 9.90766C133.575 9.68073 133.095 9.5741 132.612 9.59917C132.129 9.62424 131.661 9.78007 131.26 10.05L86.86 40L42 10.19C41.5858 9.91527 41.1048 9.75794 40.6083 9.73475C40.1118 9.71155 39.6183 9.82336 39.1803 10.0583C38.7422 10.2932 38.3761 10.6424 38.1207 11.0689C37.8653 11.4953 37.7303 11.983 37.73 12.48V34.48L15.42 20C15.034 19.7347 14.5848 19.5759 14.1178 19.5399C13.6509 19.5038 13.1826 19.5917 12.7605 19.7946C12.3384 19.9976 11.9773 20.3084 11.7138 20.6956C11.4504 21.0829 11.2938 21.5328 11.26 22V141.25L25.33 150.34V47.46C25.3488 46.9851 25.4945 46.524 25.7519 46.1245C26.0093 45.725 26.3691 45.4018 26.7938 45.1884C27.2184 44.9751 27.6925 44.8794 28.1667 44.9113C28.6408 44.9433 29.0978 45.1016 29.49 45.37L37.75 50.74V142.5L67.35 161.34C73.2628 165.202 80.1724 167.259 87.235 167.259C94.2975 167.259 101.207 165.202 107.12 161.34L135.42 142.45V50.89L143.66 45.47C144.053 45.2024 144.511 45.0446 144.985 45.013C145.459 44.9814 145.934 45.077 146.359 45.2901C146.784 45.5032 147.145 45.8259 147.403 46.225C147.662 46.624 147.809 47.0849 147.83 47.56V150.16L161.91 141.07V22C161.889 21.5249 161.742 21.064 161.483 20.665C161.225 20.2659 160.864 19.9432 160.439 19.7301C160.014 19.517 159.539 19.4214 159.065 19.453C158.591 19.4846 158.133 19.6424 157.74 19.91ZM122.33 109.29H86.58V115.05H122.33V135.41L99.91 150.41C95.961 152.983 91.3215 154.291 86.61 154.16C82.2812 154.045 78.0689 152.733 74.44 150.37L50.84 135.37V59.26L85.43 81.78C85.8794 82.0623 86.3993 82.212 86.93 82.212C87.4607 82.212 87.9806 82.0623 88.43 81.78L122.32 59.5L122.33 109.29ZM122.33 43.19L88.4 65.49C87.9532 65.7793 87.4323 65.9332 86.9 65.9332C86.3677 65.9332 85.8468 65.7793 85.4 65.49L50.84 43V31.74L86.92 55.74L122.33 31.89V43.19Z" fill="#233D79"/>
<path d="M104.19 133.37V126.31C104.193 124.489 104.917 122.743 106.205 121.455C107.493 120.167 109.239 119.443 111.06 119.44H118.68V126.51C118.68 127.411 118.503 128.303 118.158 129.135C117.813 129.968 117.308 130.724 116.671 131.361C116.034 131.998 115.277 132.503 114.445 132.848C113.613 133.193 112.721 133.37 111.82 133.37H104.19Z" fill="#233D79"/>
<path d="M93 123.34V123.91C93 124.771 93.1697 125.625 93.4994 126.42C93.829 127.216 94.3122 127.939 94.9214 128.549C95.5305 129.158 96.2537 129.641 97.0496 129.971C97.8455 130.3 98.6985 130.47 99.56 130.47H101.17V129.9C101.17 128.16 100.479 126.492 99.2486 125.261C98.0184 124.031 96.3498 123.34 94.61 123.34H93Z" fill="#233D79"/>
<path d="M104.19 133.37V138.77C104.19 140.589 103.467 142.334 102.181 143.621C100.894 144.907 99.1494 145.63 97.33 145.63H91.93V140.24C91.9326 138.419 92.6573 136.673 93.9451 135.385C95.2329 134.097 96.9788 133.373 98.8 133.37H104.19Z" fill="#233D79"/>
</svg>
