<svg width="414" height="180" viewBox="0 0 414 180" fill="none" xmlns="http://www.w3.org/2000/svg">
<path d="M201.66 84.5C198.333 82.7407 195.585 80.0561 193.75 76.77C191.854 73.2537 190.906 69.304 191 65.31C190.924 61.2994 191.908 57.3397 193.85 53.83C195.702 50.5464 198.458 47.8634 201.79 46.1C205.382 44.234 209.383 43.2956 213.43 43.37C216.391 43.3275 219.33 43.885 222.069 45.009C224.809 46.133 227.292 47.8002 229.37 49.91L223.28 56C222.005 54.7536 220.496 53.7725 218.84 53.1133C217.183 52.4542 215.413 52.1302 213.63 52.16C211.294 52.1142 208.987 52.6832 206.94 53.81C205.02 54.8896 203.456 56.5055 202.44 58.46C201.4 60.6097 200.859 62.9669 200.859 65.355C200.859 67.7431 201.4 70.1003 202.44 72.25C203.456 74.2045 205.02 75.8204 206.94 76.9C208.988 78.0238 211.295 78.5894 213.63 78.54C215.597 78.5478 217.548 78.1848 219.38 77.47C221.18 76.7759 222.815 75.7132 224.18 74.35L229.93 80.76C227.777 82.8859 225.22 84.5596 222.411 85.6828C219.601 86.8059 216.595 87.3558 213.57 87.3C209.432 87.39 205.337 86.4411 201.66 84.54" fill="white"/>
<path d="M239.68 85C237.3 83.7838 235.326 81.9003 234 79.58C232.63 77.1074 231.94 74.316 232 71.49C231.94 68.664 232.63 65.8727 234 63.4C235.329 61.0871 237.303 59.2109 239.68 58C242.37 56.7159 245.314 56.0494 248.295 56.0494C251.276 56.0494 254.22 56.7159 256.91 58C259.3 59.2139 261.282 61.1017 262.61 63.43C263.98 65.9027 264.67 68.694 264.61 71.52C264.67 74.346 263.98 77.1374 262.61 79.61C261.282 81.9383 259.3 83.8262 256.91 85.04C254.22 86.3241 251.276 86.9906 248.295 86.9906C245.314 86.9906 242.37 86.3241 239.68 85.04M253.32 76.92C254.556 75.3915 255.23 73.4855 255.23 71.52C255.23 69.5546 254.556 67.6485 253.32 66.12C252.685 65.434 251.91 64.8924 251.047 64.5318C250.184 64.1713 249.254 64.0001 248.32 64.03C247.385 63.9955 246.454 64.1645 245.59 64.5254C244.727 64.8862 243.952 65.4303 243.32 66.12C242.084 67.6485 241.41 69.5546 241.41 71.52C241.41 73.4855 242.084 75.3915 243.32 76.92C243.951 77.6113 244.725 78.1565 245.589 78.5175C246.453 78.8785 247.385 79.0466 248.32 79.01C249.255 79.0419 250.185 78.8716 251.048 78.5109C251.911 78.1502 252.686 77.6076 253.32 76.92Z" fill="white"/>
<path d="M277.85 44.33H268.44V86.3H277.85V44.33Z" fill="white"/>
<path d="M307.06 57.85C309.335 58.995 311.22 60.7867 312.48 63C313.78 65.3759 314.432 68.0523 314.37 70.76C314.352 71.9455 314.251 73.1283 314.07 74.3H292.31C292.442 75.0521 292.728 75.7689 293.149 76.4055C293.571 77.0421 294.119 77.585 294.76 78C296.321 78.9944 298.151 79.4832 300 79.4C301.465 79.4055 302.922 79.1863 304.32 78.75C305.623 78.3615 306.841 77.7304 307.91 76.89L312.83 82.16C311.093 83.7523 309.052 84.9769 306.83 85.76C304.479 86.6026 301.997 87.0225 299.5 87C296.416 87.0778 293.358 86.4304 290.57 85.11C288.142 83.9349 286.116 82.0661 284.75 79.74C283.355 77.2338 282.664 74.3969 282.75 71.53C282.693 68.7043 283.383 65.9135 284.75 63.44C286.058 61.1351 287.993 59.2487 290.33 58C292.894 56.6414 295.759 55.9534 298.66 56C301.566 55.9253 304.448 56.5531 307.06 57.83M294.37 64.83C293.779 65.3227 293.296 65.9325 292.952 66.6208C292.608 67.3092 292.409 68.0614 292.37 68.83H305.44C305.418 68.0689 305.238 67.3207 304.913 66.6324C304.588 65.944 304.124 65.3303 303.55 64.83C302.242 63.8521 300.631 63.367 299 63.46C297.35 63.3875 295.727 63.8933 294.41 64.89" fill="white"/>
<path d="M349.74 85.25C350.851 86.9071 351.427 88.8652 351.39 90.86C351.439 93.2039 350.739 95.5023 349.39 97.42C347.927 99.3996 345.929 100.919 343.63 101.8C340.881 102.869 337.949 103.389 335 103.33C332.123 103.391 329.264 102.86 326.6 101.77C324.342 100.866 322.396 99.3226 321 97.33C319.687 95.3641 319.007 93.0437 319.05 90.68C319.043 90.1993 319.063 89.7185 319.11 89.24H328.16C328.071 90.0739 328.174 90.9171 328.46 91.7055C328.746 92.4939 329.207 93.2068 329.81 93.79C331.269 94.9744 333.126 95.5543 335 95.41C336.719 95.4901 338.419 95.0169 339.85 94.06C340.433 93.6692 340.908 93.1386 341.233 92.5168C341.558 91.8949 341.722 91.2015 341.71 90.5C341.741 89.82 341.601 89.1431 341.302 88.5315C341.003 87.9199 340.556 87.3933 340 87C338.541 86.0924 336.835 85.6624 335.12 85.77C332.144 85.8372 329.193 85.1998 326.51 83.91C324.147 82.75 322.17 80.9299 320.82 78.67C319.448 76.2711 318.756 73.543 318.82 70.78C318.775 68.0701 319.492 65.402 320.89 63.08C322.275 60.8167 324.267 58.9874 326.64 57.8C329.236 56.5111 332.102 55.8598 335 55.9C337.316 55.874 339.609 56.3659 341.71 57.34L345.21 53L352.11 58L348.11 62.62C350.099 64.8628 351.17 67.7727 351.11 70.77C351.127 72.9048 350.578 75.006 349.52 76.86C348.439 78.7384 346.902 80.3137 345.05 81.44C346.924 82.2536 348.534 83.5729 349.7 85.25M340.01 75.87C340.66 75.1951 341.165 74.3948 341.496 73.5179C341.826 72.641 341.974 71.706 341.93 70.77C342.042 69.7902 341.945 68.7979 341.646 67.8581C341.348 66.9182 340.854 66.0521 340.197 65.3164C339.541 64.5807 338.736 63.992 337.836 63.589C336.936 63.1859 335.961 62.9776 334.975 62.9776C333.989 62.9776 333.014 63.1859 332.114 63.589C331.214 63.992 330.409 64.5807 329.753 65.3164C329.096 66.0521 328.602 66.9182 328.304 67.8581C328.005 68.7979 327.908 69.7902 328.02 70.77C327.99 71.705 328.15 72.6364 328.491 73.5078C328.831 74.3793 329.344 75.1726 330 75.84C331.381 77.0852 333.175 77.7744 335.035 77.7744C336.895 77.7744 338.689 77.0852 340.07 75.84" fill="white"/>
<path d="M356.84 52.3C356.339 51.8366 355.943 51.2709 355.679 50.6412C355.415 50.0115 355.289 49.3325 355.31 48.65C355.287 47.9541 355.414 47.2614 355.683 46.6194C355.952 45.9773 356.357 45.401 356.87 44.93C357.978 43.9996 359.378 43.4896 360.825 43.4896C362.272 43.4896 363.672 43.9996 364.78 44.93C365.293 45.401 365.698 45.9773 365.967 46.6194C366.236 47.2614 366.363 47.9541 366.34 48.65C366.361 49.3325 366.235 50.0115 365.971 50.6412C365.707 51.2709 365.311 51.8366 364.81 52.3C363.689 53.2391 362.273 53.7537 360.81 53.7537C359.347 53.7537 357.931 53.2391 356.81 52.3M356.06 56.68H365.47V86.3H356.06V56.68Z" fill="white"/>
<path d="M378 85C375.622 83.7795 373.652 81.8925 372.33 79.57C370.96 77.0973 370.27 74.306 370.33 71.48C370.27 68.654 370.96 65.8626 372.33 63.39C373.658 61.0822 375.628 59.2097 378 58C380.663 56.6529 383.617 55.9831 386.6 56.05C389.589 55.988 392.548 56.6574 395.22 58C397.605 59.2173 399.583 61.1045 400.91 63.43C402.28 65.9026 402.97 68.694 402.91 71.52C402.97 74.346 402.28 77.1373 400.91 79.61C399.576 81.9206 397.599 83.7934 395.22 85C392.547 86.363 389.58 87.0497 386.58 87C383.599 87.0481 380.652 86.3612 378 85ZM391.64 76.88C392.883 75.3546 393.561 73.4474 393.561 71.48C393.561 69.5126 392.883 67.6053 391.64 66.08C391.005 65.394 390.23 64.8524 389.367 64.4918C388.504 64.1312 387.574 63.9601 386.64 63.99C385.705 63.9541 384.773 64.1225 383.909 64.4834C383.046 64.8444 382.271 65.3892 381.64 66.08C380.397 67.6053 379.719 69.5126 379.719 71.48C379.719 73.4474 380.397 75.3546 381.64 76.88C382.27 77.5723 383.044 78.1183 383.908 78.4793C384.772 78.8404 385.705 79.0079 386.64 78.97C387.575 79.0018 388.505 78.8316 389.368 78.4709C390.231 78.1102 391.006 77.5675 391.64 76.88Z" fill="white"/>
<path d="M275.36 110.54V140H267.24L266.64 136.47C265.407 137.829 263.892 138.902 262.201 139.616C260.51 140.329 258.684 140.665 256.85 140.6C254.277 140.646 251.742 139.974 249.53 138.66C247.383 137.355 245.65 135.469 244.53 133.22C243.351 130.727 242.74 128.003 242.74 125.245C242.74 122.487 243.351 119.763 244.53 117.27C245.647 115.022 247.382 113.139 249.53 111.84C251.742 110.526 254.277 109.854 256.85 109.9C258.728 109.868 260.594 110.208 262.34 110.9C263.978 111.569 265.447 112.594 266.64 113.9L267.24 110.44L275.36 110.54ZM264.14 130.69C265.412 129.176 266.11 127.262 266.11 125.285C266.11 123.308 265.412 121.394 264.14 119.88C263.485 119.2 262.694 118.665 261.819 118.31C260.944 117.955 260.004 117.788 259.06 117.82C258.118 117.788 257.18 117.957 256.308 118.318C255.437 118.678 254.654 119.221 254.01 119.91C252.757 121.421 252.071 123.322 252.071 125.285C252.071 127.248 252.757 129.149 254.01 130.66C254.652 131.351 255.435 131.895 256.307 132.256C257.178 132.617 258.117 132.785 259.06 132.75C260.004 132.784 260.945 132.617 261.82 132.262C262.695 131.907 263.486 131.372 264.14 130.69Z" fill="white"/>
<path d="M308.68 113.46C310.853 115.847 311.937 119.153 311.93 123.38V140H302.56V123.91C302.656 122.289 302.143 120.691 301.12 119.43C300.622 118.888 300.011 118.463 299.33 118.185C298.649 117.907 297.915 117.782 297.18 117.82C296.353 117.788 295.529 117.938 294.766 118.257C294.002 118.577 293.318 119.059 292.76 119.67C291.612 121.015 291.016 122.744 291.09 124.51V140H281.71V110.5H289.83L290.43 113.96C291.583 112.674 292.998 111.651 294.58 110.96C296.269 110.234 298.092 109.869 299.93 109.89C301.561 109.815 303.189 110.097 304.7 110.715C306.211 111.334 307.569 112.274 308.68 113.47" fill="white"/>
<path d="M349.56 110.54V140H341.44L340.84 136.47C339.604 137.829 338.087 138.902 336.395 139.615C334.703 140.328 332.875 140.664 331.04 140.6C328.47 140.645 325.939 139.973 323.73 138.66C321.586 137.351 319.854 135.466 318.73 133.22C317.551 130.727 316.94 128.003 316.94 125.245C316.94 122.487 317.551 119.763 318.73 117.27C319.851 115.025 321.585 113.142 323.73 111.84C325.939 110.527 328.47 109.855 331.04 109.9C332.921 109.868 334.79 110.208 336.54 110.9C338.175 111.574 339.643 112.598 340.84 113.9L341.44 110.44L349.56 110.54ZM338.33 130.69C339.602 129.176 340.3 127.262 340.3 125.285C340.3 123.308 339.602 121.394 338.33 119.88C337.675 119.199 336.884 118.664 336.009 118.309C335.134 117.954 334.194 117.788 333.25 117.82C332.316 117.792 331.386 117.964 330.524 118.325C329.662 118.685 328.886 119.226 328.25 119.91C326.997 121.421 326.311 123.322 326.311 125.285C326.311 127.248 326.997 129.149 328.25 130.66C328.885 131.346 329.66 131.888 330.523 132.248C331.386 132.609 332.316 132.78 333.25 132.75C334.194 132.785 335.135 132.619 336.011 132.264C336.886 131.909 337.677 131.373 338.33 130.69Z" fill="white"/>
<path d="M381.59 111.88C383.741 113.176 385.475 115.06 386.59 117.31C387.775 119.802 388.39 122.526 388.39 125.285C388.39 128.044 387.775 130.768 386.59 133.26C385.473 135.511 383.739 137.397 381.59 138.7C379.366 140.012 376.822 140.684 374.24 140.64C372.406 140.703 370.581 140.367 368.89 139.654C367.199 138.94 365.684 137.868 364.45 136.51L363.85 140.04H355.73V98.23H365.1V113.34C367.59 111.064 370.868 109.844 374.24 109.94C376.822 109.896 379.366 110.568 381.59 111.88ZM378 130.69C379.272 129.176 379.97 127.262 379.97 125.285C379.97 123.308 379.272 121.394 378 119.88C377.347 119.2 376.558 118.665 375.685 118.31C374.811 117.955 373.872 117.788 372.93 117.82C371.988 117.786 371.049 117.955 370.178 118.316C369.306 118.676 368.523 119.22 367.88 119.91C366.627 121.421 365.941 123.322 365.941 125.285C365.941 127.248 366.627 129.149 367.88 130.66C368.522 131.351 369.305 131.896 370.177 132.257C371.048 132.618 371.987 132.786 372.93 132.75C373.873 132.785 374.812 132.619 375.686 132.264C376.56 131.909 377.349 131.372 378 130.69Z" fill="white"/>
<path d="M395.33 106.18C394.844 105.699 394.458 105.127 394.195 104.496C393.932 103.865 393.796 103.189 393.796 102.505C393.796 101.821 393.932 101.145 394.195 100.514C394.458 99.8831 394.844 99.3107 395.33 98.83C396.437 97.9067 397.833 97.401 399.275 97.401C400.717 97.401 402.113 97.9067 403.22 98.83C403.706 99.3107 404.092 99.8831 404.355 100.514C404.618 101.145 404.754 101.821 404.754 102.505C404.754 103.189 404.618 103.865 404.355 104.496C404.092 105.127 403.706 105.699 403.22 106.18C402.102 107.104 400.696 107.61 399.245 107.61C397.794 107.61 396.388 107.104 395.27 106.18M394.53 110.53H404V140.14H394.63L394.53 110.53Z" fill="white"/>
<path d="M233.91 95.33C233.15 95.3321 232.408 95.562 231.78 95.99L214.39 107.99L196.84 96C196.213 95.578 195.475 95.3517 194.72 95.35C193.732 95.3631 192.789 95.7633 192.093 96.4646C191.398 97.1659 191.005 98.1122 191 99.1V140.1H200.88V110.67L212.33 118.49C212.954 118.92 213.693 119.15 214.45 119.15C215.212 119.152 215.956 118.918 216.58 118.48L227.84 110.73V140.14H237.71V99.14C237.71 98.1428 237.314 97.1864 236.609 96.4813C235.904 95.7762 234.947 95.38 233.95 95.38" fill="white"/>
<path d="M110.47 92.69L107.65 97.29C107.43 97.6305 107.127 97.9105 106.771 98.1043C106.415 98.2981 106.016 98.3997 105.61 98.3997C105.204 98.3997 104.805 98.2981 104.449 98.1043C104.093 97.9105 103.79 97.6305 103.57 97.29L100.76 92.69L95.42 101.42C95.2215 101.763 95.1186 102.153 95.1218 102.55C95.1251 102.946 95.2345 103.335 95.4386 103.674C95.6428 104.014 95.9342 104.293 96.2826 104.482C96.631 104.672 97.0238 104.764 97.42 104.75H113.74C114.136 104.764 114.529 104.672 114.877 104.482C115.226 104.293 115.517 104.014 115.721 103.674C115.925 103.335 116.035 102.946 116.038 102.55C116.041 102.153 115.938 101.763 115.74 101.42L110.47 92.69Z" fill="white"/>
<path d="M107.65 88.09L110.47 92.69L115.81 84C116.008 83.6568 116.111 83.2667 116.108 82.8703C116.105 82.4738 115.995 82.0855 115.791 81.7456C115.587 81.4057 115.296 81.1267 114.947 80.9376C114.599 80.7484 114.206 80.656 113.81 80.67H97.45C97.0538 80.656 96.6611 80.7484 96.3126 80.9376C95.9642 81.1267 95.6728 81.4057 95.4687 81.7456C95.2645 82.0855 95.1552 82.4738 95.1519 82.8703C95.1486 83.2667 95.2515 83.6568 95.45 84L100.79 92.74L103.6 88.14C103.82 87.7995 104.123 87.5196 104.479 87.3257C104.835 87.1319 105.234 87.0304 105.64 87.0304C106.046 87.0304 106.445 87.1319 106.801 87.3257C107.157 87.5196 107.46 87.7995 107.68 88.14" fill="white"/>
<path d="M85.43 81.78L50.84 59.26V135.32L74.44 150.32C78.0689 152.683 82.2812 153.995 86.61 154.11L86.74 115.03H50.84V109.27H86.76L86.86 82.19C86.3545 82.1889 85.8593 82.0469 85.43 81.78ZM66.81 118.78C67.9022 118.78 68.9698 119.104 69.8778 119.711C70.7858 120.318 71.4933 121.181 71.9108 122.19C72.3283 123.199 72.437 124.31 72.2232 125.381C72.0094 126.452 71.4827 127.435 70.7097 128.207C69.9367 128.978 68.9522 129.503 67.8807 129.715C66.8093 129.927 65.6991 129.816 64.6906 129.397C63.6822 128.978 62.8208 128.269 62.2154 127.359C61.6101 126.45 61.288 125.382 61.29 124.29C61.2887 123.565 61.4306 122.846 61.7075 122.176C61.9844 121.506 62.391 120.897 62.9038 120.384C63.4167 119.871 64.0257 119.464 64.696 119.188C65.3663 118.911 66.0847 118.769 66.81 118.77V118.78ZM64.45 134.1C67.6769 134.097 70.7708 132.814 73.0526 130.533C75.3343 128.251 76.6174 125.157 76.62 121.93C76.6654 121.124 77.0176 120.366 77.6043 119.811C78.191 119.257 78.9677 118.948 79.775 118.948C80.5823 118.948 81.359 119.257 81.9457 119.811C82.5324 120.366 82.8846 121.124 82.93 121.93C82.9273 126.831 80.9798 131.531 77.515 134.998C74.0502 138.465 69.3513 140.415 64.45 140.42C63.6119 140.42 62.8082 140.087 62.2155 139.494C61.6229 138.902 61.29 138.098 61.29 137.26C61.29 136.422 61.6229 135.618 62.2155 135.026C62.8082 134.433 63.6119 134.1 64.45 134.1ZM79.63 90.64L73.69 91.64C72.8022 91.765 71.9716 92.1512 71.3038 92.7495C70.6361 93.3478 70.1613 94.1312 69.94 95L68.78 104.59C68.7526 104.865 68.6237 105.12 68.4184 105.305C68.2131 105.49 67.9463 105.591 67.67 105.59C67.3943 105.589 67.1287 105.487 66.9239 105.302C66.7191 105.118 66.5895 104.864 66.56 104.59L65.38 94.9C65.104 94.1024 64.6266 93.3896 63.9941 92.8307C63.3616 92.2718 62.5955 91.8858 61.77 91.71L55.71 90.64C55.4542 90.591 55.2234 90.4544 55.0575 90.2536C54.8915 90.0528 54.8007 89.8005 54.8007 89.54C54.8007 89.2795 54.8915 89.0272 55.0575 88.8264C55.2234 88.6257 55.4542 88.489 55.71 88.44L61.71 87.38C62.5682 87.2021 63.3645 86.8017 64.0191 86.219C64.6738 85.6363 65.1638 84.8918 65.44 84.06L66.61 78.65C66.6638 78.3996 66.8019 78.1751 67.0011 78.0141C67.2004 77.8531 67.4488 77.7653 67.705 77.7653C67.9612 77.7653 68.2096 77.8531 68.4089 78.0141C68.6081 78.1751 68.7462 78.3996 68.8 78.65L69.92 84C70.2023 84.8449 70.7006 85.6012 71.3654 86.1941C72.0302 86.787 72.8385 87.1958 73.71 87.38L79.63 88.38C79.8858 88.429 80.1166 88.5657 80.2825 88.7664C80.4485 88.9672 80.5393 89.2195 80.5393 89.48C80.5393 89.7405 80.4485 89.9928 80.2825 90.1936C80.1166 90.3944 79.8858 90.531 79.63 90.58V90.64Z" fill="white"/>
<path d="M157.74 19.91L135.42 34.58V12.26C135.419 11.7763 135.287 11.3019 135.037 10.8876C134.787 10.4733 134.43 10.1346 134.003 9.90766C133.575 9.68073 133.095 9.5741 132.612 9.59917C132.129 9.62424 131.661 9.78007 131.26 10.05L86.86 40L42 10.19C41.5858 9.91527 41.1048 9.75794 40.6083 9.73475C40.1118 9.71155 39.6183 9.82336 39.1803 10.0583C38.7422 10.2932 38.3761 10.6424 38.1207 11.0689C37.8653 11.4953 37.7303 11.983 37.73 12.48V34.48L15.42 20C15.034 19.7347 14.5848 19.5759 14.1178 19.5399C13.6509 19.5038 13.1826 19.5917 12.7605 19.7946C12.3384 19.9976 11.9773 20.3084 11.7138 20.6956C11.4504 21.0829 11.2938 21.5328 11.26 22V141.25L25.33 150.34V47.46C25.3488 46.9851 25.4945 46.524 25.7519 46.1245C26.0093 45.725 26.3691 45.4018 26.7938 45.1884C27.2184 44.9751 27.6925 44.8794 28.1667 44.9113C28.6408 44.9433 29.0978 45.1016 29.49 45.37L37.75 50.74V142.5L67.35 161.34C73.2628 165.202 80.1724 167.259 87.235 167.259C94.2975 167.259 101.207 165.202 107.12 161.34L135.42 142.45V50.89L143.66 45.47C144.053 45.2024 144.511 45.0446 144.985 45.013C145.459 44.9814 145.934 45.077 146.359 45.2901C146.784 45.5032 147.145 45.8259 147.403 46.225C147.662 46.624 147.809 47.0849 147.83 47.56V150.16L161.91 141.07V22C161.889 21.5249 161.742 21.064 161.483 20.665C161.225 20.2659 160.864 19.9432 160.439 19.7301C160.014 19.517 159.539 19.4214 159.065 19.453C158.591 19.4846 158.133 19.6424 157.74 19.91ZM122.33 109.29H86.58V115.05H122.33V135.41L99.91 150.41C95.961 152.983 91.3215 154.291 86.61 154.16C82.2812 154.045 78.0689 152.733 74.44 150.37L50.84 135.37V59.26L85.43 81.78C85.8794 82.0623 86.3993 82.212 86.93 82.212C87.4607 82.212 87.9806 82.0623 88.43 81.78L122.32 59.5L122.33 109.29ZM122.33 43.19L88.4 65.49C87.9532 65.7793 87.4323 65.9332 86.9 65.9332C86.3677 65.9332 85.8468 65.7793 85.4 65.49L50.84 43V31.74L86.92 55.74L122.33 31.89V43.19Z" fill="white"/>
<path d="M104.19 133.37V126.31C104.193 124.489 104.917 122.743 106.205 121.455C107.493 120.167 109.239 119.443 111.06 119.44H118.68V126.51C118.68 127.411 118.503 128.303 118.158 129.135C117.813 129.968 117.308 130.724 116.671 131.361C116.034 131.998 115.277 132.503 114.445 132.848C113.613 133.193 112.721 133.37 111.82 133.37H104.19Z" fill="white"/>
<path d="M93 123.34V123.91C93 124.771 93.1697 125.624 93.4994 126.42C93.829 127.216 94.3122 127.939 94.9214 128.549C95.5305 129.158 96.2537 129.641 97.0496 129.971C97.8455 130.3 98.6985 130.47 99.56 130.47H101.17V129.9C101.17 128.16 100.479 126.492 99.2486 125.261C98.0184 124.031 96.3498 123.34 94.61 123.34H93Z" fill="white"/>
<path d="M104.19 133.37V138.77C104.19 140.589 103.467 142.334 102.181 143.621C100.894 144.907 99.1494 145.63 97.33 145.63H91.93V140.24C91.9326 138.419 92.6573 136.673 93.9451 135.385C95.2329 134.097 96.9788 133.373 98.8 133.37H104.19Z" fill="white"/>
</svg>
